<svg width="24" height="24" viewBox="0 0 24 24" fill="none" xmlns="http://www.w3.org/2000/svg">
<path fill-rule="evenodd" clip-rule="evenodd" d="M6.21875 13.0625C4.71746 13.0625 3.5 14.28 3.5 15.7812C3.5 17.2826 4.71714 18.5 6.21875 18.5C7.72004 18.5 8.9375 17.2825 8.9375 15.7812C8.9375 14.2796 7.72009 13.0625 6.21875 13.0625ZM2 15.7812C2 13.4515 3.88904 11.5625 6.21875 11.5625C8.54841 11.5625 10.4375 13.4511 10.4375 15.7812C10.4375 18.111 8.54846 20 6.21875 20C3.88861 20 2 18.1109 2 15.7812Z" fill="white"/>
<path fill-rule="evenodd" clip-rule="evenodd" d="M17.7812 13.0625C16.28 13.0625 15.0625 14.28 15.0625 15.7812C15.0625 17.2826 16.2796 18.5 17.7812 18.5C19.2825 18.5 20.5 17.2825 20.5 15.7812C20.5 14.2796 19.2826 13.0625 17.7812 13.0625ZM13.5625 15.7812C13.5625 13.4515 15.4515 11.5625 17.7812 11.5625C20.1109 11.5625 22 13.4511 22 15.7812C22 18.111 20.111 20 17.7812 20C15.4511 20 13.5625 18.1109 13.5625 15.7812Z" fill="white"/>
<path fill-rule="evenodd" clip-rule="evenodd" d="M12 1.5C10.4987 1.5 9.28125 2.71746 9.28125 4.21875C9.28125 5.72009 10.4984 6.9375 12 6.9375C13.5013 6.9375 14.7188 5.72004 14.7188 4.21875C14.7188 2.71714 13.5013 1.5 12 1.5ZM7.78125 4.21875C7.78125 1.88904 9.67029 0 12 0C14.3297 0 16.2188 1.88861 16.2188 4.21875C16.2188 6.54846 14.3297 8.4375 12 8.4375C9.66986 8.4375 7.78125 6.54841 7.78125 4.21875Z" fill="white"/>
</svg>
