<svg width="25" height="24" viewBox="0 0 25 24" fill="none" xmlns="http://www.w3.org/2000/svg">
<path fill-rule="evenodd" clip-rule="evenodd" d="M18.0243 3.97991C14.7179 0.673117 9.34507 0.673117 6.03863 3.98077C4.37941 5.63963 3.55317 7.80831 3.55478 9.97978C3.55602 11.659 3.54396 13.9613 3.5316 15.8423C3.52542 16.7831 3.51916 17.6191 3.51444 18.2199L3.5128 18.4244C3.5742 18.424 3.63879 18.4235 3.7064 18.4231C4.30048 18.4194 5.12695 18.4151 6.05661 18.4131C7.91387 18.4091 10.1903 18.4139 11.8475 18.4497C14.078 18.498 16.3197 17.6728 18.0243 15.9681C21.3311 12.6609 21.3369 7.29291 18.0243 3.97991ZM2.75659 19.1801L2.00662 19.1735L2.01449 18.2082C2.0192 17.6078 2.02546 16.7725 2.03163 15.8325C2.04399 13.9518 2.05602 11.6542 2.05478 9.9809C2.05288 7.42737 3.02574 4.87197 4.97778 2.9203M4.97778 2.9203C8.87003 -0.973217 15.1928 -0.97332 19.085 2.91931C22.984 6.81876 22.9769 13.1364 19.085 17.0287C17.0795 19.0345 14.4377 20.0061 11.8151 19.9494C10.1771 19.914 7.91616 19.9091 6.05987 19.9131C5.13275 19.9151 4.3084 19.9193 3.71585 19.9231C3.41959 19.9249 3.18132 19.9267 3.01718 19.928L2.7643 19.93L2.75659 19.1801L2.7633 19.93L2 19.9369L2.00662 19.1735L2.75659 19.1801" fill="white"/>
<path fill-rule="evenodd" clip-rule="evenodd" d="M7.47253 9.6067H9.07127V11.1067H7.47253V9.6067Z" fill="white"/>
<path fill-rule="evenodd" clip-rule="evenodd" d="M11.2068 9.60681H12.8055V11.1068H11.2068V9.60681Z" fill="white"/>
<path fill-rule="evenodd" clip-rule="evenodd" d="M14.9411 9.6067H16.5398V11.1067H14.9411V9.6067Z" fill="white"/>
</svg>
