<svg width="19" height="19" viewBox="0 0 19 19" fill="none" xmlns="http://www.w3.org/2000/svg">
<path fill-rule="evenodd" clip-rule="evenodd" d="M12.9017 12.3012C12.9657 13.7516 11.7951 14.9781 10.2874 15.0397C10.1763 15.0444 4.76208 15.0335 4.76208 15.0335C3.2616 15.1474 1.94837 14.0691 1.83002 12.6242C1.8211 12.5165 1.82353 6.70719 1.82353 6.70719C1.75706 5.25525 2.92599 4.02566 4.43458 3.96168C4.54726 3.95622 9.95419 3.96636 9.95419 3.96636C11.462 3.85401 12.7793 4.94005 12.896 6.39199C12.9041 6.49654 12.9017 12.3012 12.9017 12.3012Z" stroke="white" stroke-width="1.5" stroke-linecap="round" stroke-linejoin="round"/>
<path d="M12.9042 7.90079L15.5111 5.76724C16.1571 5.23841 17.1261 5.69916 17.1253 6.53279L17.1158 12.3507C17.115 13.1844 16.1453 13.6412 15.5008 13.1123L12.9042 10.9788" stroke="white" stroke-width="1.5" stroke-linecap="round" stroke-linejoin="round"/>
</svg>
