<svg width="18" height="18" viewBox="0 0 18 18" fill="none" xmlns="http://www.w3.org/2000/svg">
<path fill-rule="evenodd" clip-rule="evenodd" d="M11.5329 6.46704L4.71357 13.2869C4.53632 13.1842 4.36841 13.1189 4.21915 13.1096C2.92245 13.0163 2.4187 13.1656 1.70971 12.5592C0.944757 11.9061 1.00073 10.1615 1.00073 8.88337C1.00073 7.60523 0.944757 5.86063 1.70971 5.20757C2.4187 4.60115 2.92245 4.75975 4.21915 4.65713C5.51584 4.55451 8.25849 0.598821 10.3761 1.84897C11.2344 2.54868 11.4676 3.8548 11.5329 6.46704Z" stroke="white" stroke-width="1.5" stroke-linecap="round" stroke-linejoin="round"/>
<path d="M11.5329 10.9172C11.4956 13.7907 11.2717 15.1901 10.3761 15.9178C9.39661 16.4962 8.28649 15.9645 7.24167 15.2088" stroke="white" stroke-width="1.5" stroke-linecap="round" stroke-linejoin="round"/>
<path d="M1.00119 17L4.71403 13.2869L11.5333 6.46706L17 1" stroke="white" stroke-width="1.5" stroke-linecap="round" stroke-linejoin="round"/>
</svg>
